<svg width="1696" height="61" viewBox="0 0 1696 61" fill="none" xmlns="http://www.w3.org/2000/svg">
<g filter="url(#filter0_d_29_69)">
<rect x="4" width="1688" height="53" rx="26.5" fill="white" fill-opacity="0.4" shape-rendering="crispEdges"/>
<path d="M41.5833 30.6667H43.0317L43.545 30.1717C41.7483 28.0817 40.6667 25.3683 40.6667 22.4167C40.6667 15.835 46.0017 10.5 52.5833 10.5C59.165 10.5 64.5 15.835 64.5 22.4167C64.5 28.9983 59.165 34.3333 52.5833 34.3333C49.6317 34.3333 46.9183 33.2517 44.8283 31.455L44.3333 31.9683V33.4167L35.1667 42.565L32.435 39.8333L41.5833 30.6667ZM52.5833 30.6667C57.1483 30.6667 60.8333 26.9817 60.8333 22.4167C60.8333 17.8517 57.1483 14.1667 52.5833 14.1667C48.0183 14.1667 44.3333 17.8517 44.3333 22.4167C44.3333 26.9817 48.0183 30.6667 52.5833 30.6667Z" fill="black" fill-opacity="0.87"/>
<path d="M96.4991 9.50009L96.4991 45.5001" stroke="black"/>
<rect x="4.5" y="0.5" width="1687" height="52" rx="26" stroke="black" stroke-opacity="0.8" shape-rendering="crispEdges"/>
</g>
<defs>
<filter id="filter0_d_29_69" x="0" y="0" width="1696" height="61" filterUnits="userSpaceOnUse" color-interpolation-filters="sRGB">
<feFlood flood-opacity="0" result="BackgroundImageFix"/>
<feColorMatrix in="SourceAlpha" type="matrix" values="0 0 0 0 0 0 0 0 0 0 0 0 0 0 0 0 0 0 127 0" result="hardAlpha"/>
<feOffset dy="4"/>
<feGaussianBlur stdDeviation="2"/>
<feComposite in2="hardAlpha" operator="out"/>
<feColorMatrix type="matrix" values="0 0 0 0 0 0 0 0 0 0 0 0 0 0 0 0 0 0 0.25 0"/>
<feBlend mode="normal" in2="BackgroundImageFix" result="effect1_dropShadow_29_69"/>
<feBlend mode="normal" in="SourceGraphic" in2="effect1_dropShadow_29_69" result="shape"/>
</filter>
</defs>
</svg>
